# xmcd
#
# Track frame offsets: 
#        150
#        14114
#        29615
#        45157
#        65022
#        86206
#        106108
#        123936
#        139348
#        160751
#        192087
#        207788
#        222357
#
# Disc length: 3170 seconds
#
# Revision: 3
# Processed by: cddbd v1.5.2PL0 Copyright (c) Steve Scherf et al.
# Submitted via: ExactAudioCopy v1.0b3
#
DISCID=b80c600d
DTITLE=Apocalyptica - Cult [CD1]
DYEAR=2000
DGENRE=Cello Metal
TTITLE0=Path
TTITLE1=Struggle
TTITLE2=Romance
TTITLE3=Pray!
TTITLE4=In Memoriam
TTITLE5=Hyperventilation
TTITLE6=Beyond Time
TTITLE7=Hope
TTITLE8=Kaamos
TTITLE9=Coma
TTITLE10=Hall Of The Mountain King
TTITLE11=Until It Sleeps
TTITLE12=Fight Fire With Fire
EXTD=YEAR: 2000
EXTT0=
EXTT1=
EXTT2=
EXTT3=
EXTT4=
EXTT5=
EXTT6=
EXTT7=
EXTT8=
EXTT9=
EXTT10=
EXTT11=
EXTT12=
PLAYORDER=
